HIERARCHY
ROOT hip
{
  OFFSET 0 0 0
  CHANNELS 6 Xposition Yposition Zposition Zrotation Yrotation Xrotation
  JOINT abdomen
  {
    OFFSET 0 20.6881 -0.73152
    CHANNELS 3 Zrotation Xrotation Yrotation
    JOINT chest
    {
      OFFSET 0 11.7043 -0.48768
      CHANNELS 3 Zrotation Xrotation Yrotation
      JOINT neck
      {
        OFFSET 0 22.1894 -2.19456
        CHANNELS 3 Zrotation Xrotation Yrotation
        JOINT head
        {
          OFFSET -0.24384 7.07133 1.2192
          CHANNELS 3 Zrotation Xrotation Yrotation
          JOINT leftEye
          {
            OFFSET 4.14528 8.04674 8.04672
            CHANNELS 3 Zrotation Xrotation Yrotation
            End Site
            {
              OFFSET 1 0 0
            }
          }
          JOINT rightEye
          {
            OFFSET -3.6576 8.04674 8.04672
            CHANNELS 3 Zrotation Xrotation Yrotation
            End Site
            {
              OFFSET 1 0 0
            }
          }
        }
      }
      JOINT rCollar
      {
        OFFSET -2.68224 19.2634 -4.8768
        CHANNELS 3 Zrotation Xrotation Yrotation
        JOINT rShldr
        {
          OFFSET -8.77824 -1.95073 1.46304
          CHANNELS 3 Zrotation Xrotation Yrotation
          JOINT rForeArm
          {
            OFFSET -28.1742 -1.7115 0.48768
            CHANNELS 3 Zrotation Xrotation Yrotation
            JOINT rHand
            {
              OFFSET -22.5879 0.773209 7.07136
              CHANNELS 3 Zrotation Xrotation Yrotation
              JOINT rThumb1
              {
                OFFSET -1.2192 -0.487915 3.41376
                CHANNELS 3 Zrotation Xrotation Yrotation
                JOINT rThumb2
                {
                  OFFSET -3.37035 -0.52449 3.41376
                  CHANNELS 3 Zrotation Xrotation Yrotation
                  End Site
                  {
                    OFFSET -1.78271 -1.18214 1.43049
                  }
                }
              }
              JOINT rIndex1
              {
                OFFSET -7.75947 0.938293 5.60832
                CHANNELS 3 Zrotation Xrotation Yrotation
                JOINT rIndex2
                {
                  OFFSET -2.54057 -0.884171 1.56538
                  CHANNELS 3 Zrotation Xrotation Yrotation
                  End Site
                  {
                    OFFSET -1.62519 -0.234802 1.16502
                  }
                }
              }
              JOINT rMid1
              {
                OFFSET -8.24714 1.18213 3.41376
                CHANNELS 3 Zrotation Xrotation Yrotation
                JOINT rMid2
                {
                  OFFSET -3.10165 -0.590103 1.0647
                  CHANNELS 3 Zrotation Xrotation Yrotation
                  End Site
                  {
                    OFFSET -2.48547 -0.328903 0.83742
                  }
                }
              }
              JOINT rRing1
              {
                OFFSET -8.82822 0.546677 1.51678
                CHANNELS 3 Zrotation Xrotation Yrotation
                JOINT rRing2
                {
                  OFFSET -2.60934 -0.819778 -0.0198488
                  CHANNELS 3 Zrotation Xrotation Yrotation
                  End Site
                  {
                    OFFSET -2.33842 -0.294052 0.168128
                  }
                }
              }
              JOINT rPinky1
              {
                OFFSET -8.27202 -0.0477905 -0.4584
                CHANNELS 3 Zrotation Xrotation Yrotation
                JOINT rPinky2
                {
                  OFFSET -1.82734 -0.647385 -0.700984
                  CHANNELS 3 Zrotation Xrotation Yrotation
                  End Site
                  {
                    OFFSET -1.69225 -0.51767 -0.607171
                  }
                }
              }
            }
          }
        }
      }
      JOINT lCollar
      {
        OFFSET 2.68224 19.2634 -4.8768
        CHANNELS 3 Zrotation Xrotation Yrotation
        JOINT lShldr
        {
          OFFSET 8.77824 -1.95073 1.46304
          CHANNELS 3 Zrotation Xrotation Yrotation
          JOINT lForeArm
          {
            OFFSET 28.1742 -1.7115 0.48768
            CHANNELS 3 Zrotation Xrotation Yrotation
            JOINT lHand
            {
              OFFSET 22.5879 0.773209 7.07136
              CHANNELS 3 Zrotation Xrotation Yrotation
              JOINT lThumb1
              {
                OFFSET 1.2192 -0.487915 3.41376
                CHANNELS 3 Zrotation Xrotation Yrotation
                JOINT lThumb2
                {
                  OFFSET 3.37035 -0.52449 3.41376
                  CHANNELS 3 Zrotation Xrotation Yrotation
                  End Site
                  {
                    OFFSET 1.78271 -1.18214 1.43049
                  }
                }
              }
              JOINT lIndex1
              {
                OFFSET 7.75947 0.938293 5.60832
                CHANNELS 3 Zrotation Xrotation Yrotation
                JOINT lIndex2
                {
                  OFFSET 2.54057 -0.884171 1.56538
                  CHANNELS 3 Zrotation Xrotation Yrotation
                  End Site
                  {
                    OFFSET 1.62519 -0.234802 1.16502
                  }
                }
              }
              JOINT lMid1
              {
                OFFSET 8.24714 1.18213 3.41376
                CHANNELS 3 Zrotation Xrotation Yrotation
                JOINT lMid2
                {
                  OFFSET 3.10165 -0.590103 1.0647
                  CHANNELS 3 Zrotation Xrotation Yrotation
                  End Site
                  {
                    OFFSET 2.48547 -0.328903 0.83742
                  }
                }
              }
              JOINT lRing1
              {
                OFFSET 8.82822 0.546677 1.51678
                CHANNELS 3 Zrotation Xrotation Yrotation
                JOINT lRing2
                {
                  OFFSET 2.60934 -0.819778 -0.0198488
                  CHANNELS 3 Zrotation Xrotation Yrotation
                  End Site
                  {
                    OFFSET 2.33842 -0.294052 0.168128
                  }
                }
              }
              JOINT lPinky1
              {
                OFFSET 8.27202 -0.0477905 -0.4584
                CHANNELS 3 Zrotation Xrotation Yrotation
                JOINT lPinky2
                {
                  OFFSET 1.82734 -0.647385 -0.700984
                  CHANNELS 3 Zrotation Xrotation Yrotation
                  End Site
                  {
                    OFFSET 1.69225 -0.51767 -0.607171
                  }
                }
              }
            }
          }
        }
      }
    }
  }
  JOINT rButtock
  {
    OFFSET -8.77824 4.35084 1.2192
    CHANNELS 3 Zrotation Xrotation Yrotation
    JOINT rThigh
    {
      OFFSET 0 -1.70687 -2.19456
      CHANNELS 3 Zrotation Xrotation Yrotation
      JOINT rShin
      {
        OFFSET 0 -36.8199 0.73152
        CHANNELS 3 Zrotation Xrotation Yrotation
        JOINT rFoot
        {
          OFFSET 0.73152 -45.1104 -5.12064
          CHANNELS 3 Zrotation Xrotation Yrotation
          End Site
          {
            OFFSET -1.1221 -3.69964 12.103
          }
        }
      }
    }
  }
  JOINT lButtock
  {
    OFFSET 8.77824 4.35084 1.2192
    CHANNELS 3 Zrotation Xrotation Yrotation
    JOINT lThigh
    {
      OFFSET 0 -1.70687 -2.19456
      CHANNELS 3 Zrotation Xrotation Yrotation
      JOINT lShin
      {
        OFFSET 0 -36.8199 0.73152
        CHANNELS 3 Zrotation Xrotation Yrotation
        JOINT lFoot
        {
          OFFSET -0.73152 -45.1104 -5.12064
          CHANNELS 3 Zrotation Xrotation Yrotation
          End Site
          {
            OFFSET 1.1221 -3.69964 12.103
          }
        }
      }
    }
  }
}
MOTION
Frames:	4
Frame Time:	0.00833333
46.595 83.2892 -210.377 -174.934 -61.1899 183.179 -2.16885 11.9407 -1.1199 4.32952 -9.90702 0.0107021 1.12175 4.45665 1.17727 -1.89175 -17.8318 1.79882 -0.0 0.0 0.0 -0.0 0.0 0.0 -6.04196e-14 -1.96489e-14 9.86225e-13 72.1865 21.2819 -18.1349 -18.3057 -11.0189 34.7103 -0.0944323 8.74365 1.23853 -1.94999e-09 -8.5321e-09 2.35943e-09 -3.35361e-09 -1.48008e-08 4.10302e-09 -1.94999e-09 -8.53211e-09 2.35943e-09 7.73091 5.47488 0.417314 -1.94999e-09 -8.53211e-09 2.35944e-09 2.90554 0.965183 0.102902 -1.94998e-09 -8.53211e-09 2.35944e-09 10.2786 0.731801 0.0259123 -1.95e-09 -8.5321e-09 2.35945e-09 2.22167 -0.733487 -0.20892 -6.03201e-14 -1.96393e-14 9.85963e-13 -73.4378 8.33874 6.13829 17.8244 -10.5002 -33.6246 0.0642205 7.48742 -1.05761 -3.1659e-09 2.85429e-11 2.63317e-09 -5.46297e-09 4.76799e-11 4.58362e-09 -3.1659e-09 2.85422e-11 2.63317e-09 -7.73091 5.47488 -0.417314 -3.16591e-09 2.85395e-11 2.63317e-09 -2.90554 0.965183 -0.102902 -3.16591e-09 2.8545e-11 2.63317e-09 -10.2786 0.731801 -0.0259123 -3.1659e-09 2.8547e-11 2.63316e-09 -2.22167 -0.733487 0.20892 -2.03217e-16 0.0 -3.88251e-19 1.41366 -27.4498 -12.6817 -0.326134 45.0168 1.26918 -12.8415 -14.437 -31.6522 2.03217e-16 0.0 3.88251e-19 -2.63387 -27.3371 -0.492901 0.289205 39.7821 -1.07871 10.7665 -18.9454 23.1742
46.5258 83.1998 -210.277 -175.388 -62.7143 183.721 -2.64986 12.2236 -1.05047 4.50799 -9.94657 0.0296767 1.2034 4.36626 1.19197 -2.0293 -18.1648 1.78777 -0.0 0.0 0.0 -0.0 0.0 0.0 1.13857e-14 -1.84681e-13 6.65686e-13 72.295 21.5908 -17.9757 -18.3671 -11.0867 34.8494 -0.0851558 8.31372 1.17671 -1.74361e-09 -5.74328e-09 1.42913e-09 -3.00357e-09 -9.96826e-09 2.49008e-09 -1.7436e-09 -5.74328e-09 1.42912e-09 7.73091 5.47488 0.417314 -1.74361e-09 -5.74328e-09 1.42913e-09 2.90554 0.965183 0.102902 -1.7436e-09 -5.74328e-09 1.42913e-09 10.2786 0.731801 0.0259123 -1.74361e-09 -5.74328e-09 1.42914e-09 2.22167 -0.733487 -0.20892 1.14659e-14 -1.84672e-13 6.65404e-13 -74.2735 8.41814 5.99752 17.6701 -10.3378 -33.2803 0.0954671 9.10382 -1.2893 -2.33359e-09 3.42025e-11 1.82932e-09 -4.02651e-09 5.78195e-11 3.18691e-09 -2.33359e-09 3.4202e-11 1.82933e-09 -7.73091 5.47488 -0.417314 -2.33359e-09 3.42001e-11 1.82933e-09 -2.90554 0.965183 -0.102902 -2.33359e-09 3.42039e-11 1.82932e-09 -10.2786 0.731801 -0.0259123 -2.33359e-09 3.42064e-11 1.82931e-09 -2.22167 -0.733487 0.20892 -2.03217e-16 0.0 -3.88251e-19 0.508113 -27.854 -13.5509 -0.366177 46.3539 1.30375 -12.3104 -13.52 -31.2545 2.03217e-16 0.0 3.88251e-19 -3.07988 -27.3339 -0.935897 0.294812 39.9629 -1.06278 10.2763 -18.9476 22.2326
46.4371 83.1271 -210.359 -175.232 -63.9148 183.385 -3.00838 12.5342 -0.890043 4.66055 -9.97613 0.075686 1.25317 4.27676 1.19426 -2.13007 -18.5419 1.76361 -0.0 0.0 0.0 -0.0 0.0 0.0 9.49861e-14 -3.62232e-13 2.76365e-13 72.3725 21.9198 -17.796 -18.4128 -11.1375 34.953 -0.0779519 7.94914 1.12445 -1.39911e-09 -2.15163e-09 2.54927e-10 -2.41657e-09 -3.74366e-09 4.53611e-10 -1.3991e-09 -2.15164e-09 2.5492e-10 7.73091 5.47488 0.417314 -1.39911e-09 -2.15165e-09 2.54935e-10 2.90554 0.965183 0.102902 -1.3991e-09 -2.15164e-09 2.54923e-10 10.2786 0.731801 0.0259123 -1.39911e-09 -2.15163e-09 2.54931e-10 2.22167 -0.733487 -0.20892 9.50307e-14 -3.62226e-13 2.76066e-13 -75.0376 8.368 5.82778 17.5062 -10.1663 -32.9191 0.139506 10.7624 -1.53003 -1.26676e-09 7.03602e-11 7.45832e-10 -2.18519e-09 1.20748e-10 1.30385e-09 -1.26676e-09 7.03603e-11 7.45836e-10 -7.73091 5.47488 -0.417314 -1.26676e-09 7.03591e-11 7.4583e-10 -2.90554 0.965183 -0.102902 -1.26676e-09 7.03608e-11 7.45826e-10 -10.2786 0.731801 -0.0259123 -1.26676e-09 7.03637e-11 7.45817e-10 -2.22167 -0.733487 0.20892 -2.03217e-16 0.0 -3.88251e-19 -0.201077 -28.2063 -14.2126 -0.405149 47.6094 1.3335 -11.721 -12.4993 -30.8736 2.03217e-16 0.0 3.88251e-19 -3.36607 -27.3588 -1.29884 0.301791 40.2238 -1.04958 9.77866 -18.9748 21.2405
46.3416 83.0598 -210.43 -175.0 -65.1596 182.939 -3.12714 12.8321 -0.647085 4.75312 -9.99522 0.147608 1.23235 4.24391 1.17211 -2.16149 -18.9704 1.71591 -0.0 0.0 0.0 -0.0 0.0 0.0 1.35567e-13 -4.25799e-13 9.69075e-15 72.3931 22.1592 -17.6154 -18.4397 -11.1674 35.0142 -0.0750195 7.79046 1.10174 -1.04946e-09 1.77156e-10 -4.65299e-10 -1.81753e-09 2.93871e-10 -7.96781e-10 -1.04945e-09 1.77153e-10 -4.65306e-10 7.73091 5.47488 0.417314 -1.04946e-09 1.77144e-10 -4.6529e-10 2.90554 0.965183 0.102902 -1.04945e-09 1.77153e-10 -4.65305e-10 10.2786 0.731801 0.0259123 -1.04946e-09 1.77156e-10 -4.65299e-10 2.22167 -0.733487 -0.20892 1.35584e-13 -4.25794e-13 9.39258e-15 -75.6365 8.33711 5.71144 17.3606 -10.0154 -32.6011 0.184842 12.1594 -1.73529 -4.50284e-10 7.8407e-11 8.81904e-11 -7.75161e-10 1.34382e-10 1.58915e-10 -4.50285e-10 7.84074e-11 8.81968e-11 -7.73091 5.47488 -0.417314 -4.50281e-10 7.84064e-11 8.81872e-11 -2.90554 0.965183 -0.102902 -4.50283e-10 7.84066e-11 8.81833e-11 -10.2786 0.731801 -0.0259123 -4.50282e-10 7.84098e-11 8.81745e-11 -2.22167 -0.733487 0.20892 -2.03217e-16 0.0 -3.88251e-19 -0.682625 -28.4995 -14.7789 -0.442891 48.7483 1.36191 -11.187 -11.6081 -30.4754 2.03217e-16 0.0 3.88251e-19 -3.44759 -27.3944 -1.63027 0.309281 40.5162 -1.0399 9.3378 -18.9758 20.3613
